# xmcd
#
# Track frame offsets:
#	150
#	14945
#	50173
#	103629
#	135152
#	165509
#	218285
#	242253
#
# Disc length: 3816 seconds
#
# Revision: 1
# Processed by: cddbd v1.5.2PL0 Copyright (c) Steve Scherf et al.
# Submitted via: audiograbber 1.83.01
#
DISCID=5f0ee608
DTITLE=Grateful Dead - 84-11-02 Berkeley Community Theatre, Berkeley CA
DYEAR=1900
DGENRE=
TTITLE0=Help On The Way
TTITLE1=Slipknot!
TTITLE2=Franklin's Tower
TTITLE3=Lost Sailor
TTITLE4=Saint Of Circumstance
TTITLE5=Wharf Rat
TTITLE6=Gimme Some Lovin
TTITLE7=Drums
EXTD=
EXTT0=
EXTT1=
EXTT2=
EXTT3=
EXTT4=
EXTT5=
EXTT6=
EXTT7=
PLAYORDER=
